# xmcd
#
# Track frame offsets:
#	150
#	19417
#	37653
#	47574
#	61351
#	77271
#	96263
#	113302
#	124824
#	155891
#	170965
#	194383
#	206183
#	223959
#
# Disc length: 3082 seconds
#
# Revision: 1
# Processed by: cddbd v1.5.2PL0 Copyright (c) Steve Scherf et al.
# Submitted via: audiograbber 1.83.01
#
DISCID=c50c080e
DTITLE=Dolly Parton - Acoustic Collection 1999-2002 [CD 2)
DYEAR=2006
DGENRE=Country
TTITLE0=Little Sparrow
TTITLE1=Shine
TTITLE2=I Don't Believe You've Met My Baby
TTITLE3=My Blue Tears
TTITLE4=Seven Bridges Read
TTITLE5=Bluer Pastures
TTITLE6=A Tender Lie
TTITLE7=I Get A Kick Out Of You
TTITLE8=Mountain Angel
TTITLE9=Marry Me
TTITLE10=Down From Dover
TTITLE11=The Beautiful Life
TTITLE12=In The Sweet By And By
TTITLE13=Little Sparrow (Reprise)
EXTD=
EXTT0=
EXTT1=
EXTT2=
EXTT3=
EXTT4=
EXTT5=
EXTT6=
EXTT7=
EXTT8=
EXTT9=
EXTT10=
EXTT11=
EXTT12=
EXTT13=
PLAYORDER=
